<svg width="130" height="130" viewBox="0 0 130 130" fill="none" xmlns="http://www.w3.org/2000/svg">
<rect width="130" height="130" fill="#1E1E1E"/>
<rect width="130" height="130" fill="white"/>
<path d="M84 101.822V101.822C95.3582 101.487 104.487 92.3582 104.822 81V81" stroke="black" stroke-width="6" stroke-linejoin="round"/>
<path d="M104.988 81.5079V81.5079C105.323 92.8661 114.452 101.995 125.81 102.33V102.33" stroke="black" stroke-width="6" stroke-linejoin="round"/>
<path d="M125.81 102.496V102.496C114.452 102.831 105.323 111.96 104.988 123.318V123.318" stroke="black" stroke-width="6" stroke-linejoin="round"/>
<path d="M104.822 123.318V123.318C104.487 111.96 95.3582 102.83 84 102.496V102.496" stroke="black" stroke-width="6" stroke-linejoin="round"/>
<path d="M12 21.8238V21.8238C20.6316 21.5693 27.5693 14.6316 27.8238 6.00001V6.00001" stroke="black" stroke-width="6" stroke-linejoin="round"/>
<path d="M27.9494 6.38593V6.38593C28.204 15.0175 35.1416 21.9552 43.7733 22.2097V22.2097" stroke="black" stroke-width="6" stroke-linejoin="round"/>
<path d="M43.7733 22.3354V22.3354C35.1416 22.59 28.204 29.5276 27.9494 38.1592V38.1592" stroke="black" stroke-width="6" stroke-linejoin="round"/>
<path d="M27.8238 38.1592V38.1592C27.5693 29.5276 20.6316 22.5899 12 22.3354V22.3354" stroke="black" stroke-width="6" stroke-linejoin="round"/>
<path d="M12 21.8238V21.8238C20.6316 21.5693 27.5693 14.6316 27.8238 6.00001V6.00001" stroke="black" stroke-width="6" stroke-linejoin="round"/>
<path d="M27.9494 6.38593V6.38593C28.204 15.0175 35.1416 21.9552 43.7733 22.2097V22.2097" stroke="black" stroke-width="6" stroke-linejoin="round"/>
<path d="M43.7733 22.3354V22.3354C35.1416 22.59 28.204 29.5276 27.9494 38.1592V38.1592" stroke="black" stroke-width="6" stroke-linejoin="round"/>
<path d="M27.8238 38.1592V38.1592C27.5693 29.5276 20.6316 22.5899 12 22.3354V22.3354" stroke="black" stroke-width="6" stroke-linejoin="round"/>
<path d="M19 65.3457V65.3457C43.7353 64.6163 63.6163 44.7353 64.3457 20V20" stroke="black" stroke-width="6" stroke-linejoin="round"/>
<path d="M110 65.6543V65.6543C85.2647 66.3837 65.3837 86.2647 64.6543 111V111" stroke="black" stroke-width="6" stroke-linejoin="round"/>
<path d="M64.3457 111V111C63.6163 86.2647 43.7353 66.3837 19 65.6543V65.6543" stroke="black" stroke-width="6" stroke-linejoin="round"/>
<path d="M19 65.3457V65.3457C43.7353 64.6163 63.6163 44.7353 64.3457 20V20" stroke="black" stroke-width="6" stroke-linejoin="round"/>
<path d="M64.6543 20V20C65.3837 44.7353 85.2647 64.6163 110 65.3457V65.3457" stroke="black" stroke-width="6" stroke-linejoin="round"/>
</svg>
