<svg width="130" height="130" viewBox="0 0 130 130" fill="none" xmlns="http://www.w3.org/2000/svg">
<rect width="130" height="130" fill="#1E1E1E"/>
<rect width="130" height="130" fill="white"/>
<path d="M84 101.822V101.822C95.3582 101.487 104.487 92.3582 104.822 81V81" stroke="black" stroke-width="6" stroke-linejoin="round"/>
<path d="M104.988 81.5079V81.5079C105.323 92.8661 114.452 101.995 125.81 102.33V102.33" stroke="black" stroke-width="6" stroke-linejoin="round"/>
<path d="M125.81 102.496V102.496C114.452 102.831 105.323 111.96 104.988 123.318V123.318" stroke="black" stroke-width="6" stroke-linejoin="round"/>
<path d="M104.822 123.318V123.318C104.487 111.96 95.3582 102.83 84 102.496V102.496" stroke="black" stroke-width="6" stroke-linejoin="round"/>
<path d="M94 101.418V101.418C100.248 101.234 105.27 96.2118 105.455 89.9636V89.9636" stroke="black" stroke-width="6" stroke-linejoin="round"/>
<path d="M105.545 90.2429V90.2429C105.73 96.4912 110.752 101.513 117 101.697V101.697" stroke="black" stroke-width="6" stroke-linejoin="round"/>
<path d="M117 101.788V101.788C110.752 101.973 105.73 106.995 105.545 113.243V113.243" stroke="black" stroke-width="6" stroke-linejoin="round"/>
<path d="M105.455 113.243V113.243C105.27 106.995 100.248 101.973 94 101.788V101.788" stroke="black" stroke-width="6" stroke-linejoin="round"/>
<path d="M95 103.47V103.47C99.0749 103.35 102.35 100.075 102.47 96V96" stroke="black" stroke-width="6" stroke-linejoin="round"/>
<path d="M102.53 96.1822V96.1822C102.65 100.257 105.925 103.532 110 103.653V103.653" stroke="black" stroke-width="6" stroke-linejoin="round"/>
<path d="M110 103.712V103.712C105.925 103.832 102.65 107.107 102.53 111.182V111.182" stroke="black" stroke-width="6" stroke-linejoin="round"/>
<path d="M102.47 111.182V111.182C102.35 107.107 99.0749 103.832 95 103.712V103.712" stroke="black" stroke-width="6" stroke-linejoin="round"/>
<path d="M12 21.8238V21.8238C20.6316 21.5693 27.5693 14.6316 27.8238 6.00001V6.00001" stroke="black" stroke-width="6" stroke-linejoin="round"/>
<path d="M27.9494 6.38593V6.38593C28.204 15.0175 35.1416 21.9552 43.7733 22.2097V22.2097" stroke="black" stroke-width="6" stroke-linejoin="round"/>
<path d="M43.7733 22.3354V22.3354C35.1416 22.59 28.204 29.5276 27.9494 38.1592V38.1592" stroke="black" stroke-width="6" stroke-linejoin="round"/>
<path d="M27.8238 38.1592V38.1592C27.5693 29.5276 20.6316 22.5899 12 22.3354V22.3354" stroke="black" stroke-width="6" stroke-linejoin="round"/>
<path d="M12 21.8238V21.8238C20.6316 21.5693 27.5693 14.6316 27.8238 6.00001V6.00001" stroke="black" stroke-width="6" stroke-linejoin="round"/>
<path d="M27.9494 6.38593V6.38593C28.204 15.0175 35.1416 21.9552 43.7733 22.2097V22.2097" stroke="black" stroke-width="6" stroke-linejoin="round"/>
<path d="M43.7733 22.3354V22.3354C35.1416 22.59 28.204 29.5276 27.9494 38.1592V38.1592" stroke="black" stroke-width="6" stroke-linejoin="round"/>
<path d="M27.8238 38.1592V38.1592C27.5693 29.5276 20.6316 22.5899 12 22.3354V22.3354" stroke="black" stroke-width="6" stroke-linejoin="round"/>
<path d="M21 22.5161V22.5161C24.5544 22.4113 27.4113 19.5544 27.5161 16V16" stroke="black" stroke-width="6" stroke-linejoin="round"/>
<path d="M27.5679 16.1589V16.1589C27.6727 19.7134 30.5296 22.5702 34.084 22.6751V22.6751" stroke="black" stroke-width="6" stroke-linejoin="round"/>
<path d="M34.084 22.7268V22.7268C30.5296 22.8316 27.6727 25.6885 27.5679 29.2429V29.2429" stroke="black" stroke-width="6" stroke-linejoin="round"/>
<path d="M27.5161 29.2429V29.2429C27.4113 25.6885 24.5544 22.8316 21 22.7268V22.7268" stroke="black" stroke-width="6" stroke-linejoin="round"/>
<path d="M21 22.5161V22.5161C24.5544 22.4113 27.4113 19.5544 27.5161 16V16" stroke="black" stroke-width="6" stroke-linejoin="round"/>
<path d="M27.5679 16.1589V16.1589C27.6727 19.7134 30.5296 22.5702 34.084 22.6751V22.6751" stroke="black" stroke-width="6" stroke-linejoin="round"/>
<path d="M34.084 22.7268V22.7268C30.5296 22.8316 27.6727 25.6885 27.5679 29.2429V29.2429" stroke="black" stroke-width="6" stroke-linejoin="round"/>
<path d="M27.5161 29.2429V29.2429C27.4113 25.6885 24.5544 22.8316 21 22.7268V22.7268" stroke="black" stroke-width="6" stroke-linejoin="round"/>
<path d="M19 65.3457V65.3457C43.7353 64.6163 63.6163 44.7353 64.3457 20V20" stroke="black" stroke-width="6" stroke-linejoin="round"/>
<path d="M110 65.6543V65.6543C85.2647 66.3837 65.3837 86.2647 64.6543 111V111" stroke="black" stroke-width="6" stroke-linejoin="round"/>
<path d="M64.3457 111V111C63.6163 86.2647 43.7353 66.3837 19 65.6543V65.6543" stroke="black" stroke-width="6" stroke-linejoin="round"/>
<path d="M19 65.3457V65.3457C43.7353 64.6163 63.6163 44.7353 64.3457 20V20" stroke="black" stroke-width="6" stroke-linejoin="round"/>
<path d="M64.6543 20V20C65.3837 44.7353 85.2647 64.6163 110 65.3457V65.3457" stroke="black" stroke-width="6" stroke-linejoin="round"/>
<path d="M31 66.3864V66.3864C49.2117 65.8493 63.8493 51.2117 64.3864 33V33" stroke="black" stroke-width="6" stroke-linejoin="round"/>
<path d="M98 66.6136V66.6136C79.7883 67.1507 65.1507 81.7883 64.6136 100V100" stroke="black" stroke-width="6" stroke-linejoin="round"/>
<path d="M64.3864 100V100C63.8493 81.7883 49.2117 67.1506 31 66.6136V66.6136" stroke="black" stroke-width="6" stroke-linejoin="round"/>
<path d="M31 66.3864V66.3864C49.2117 65.8493 63.8493 51.2117 64.3864 33V33" stroke="black" stroke-width="6" stroke-linejoin="round"/>
<path d="M64.6136 33V33C65.1507 51.2117 79.7883 65.8493 98 66.3864V66.3864" stroke="black" stroke-width="6" stroke-linejoin="round"/>
<path d="M43 66.4305V66.4305C54.7636 66.1018 64.2186 57.1445 64.5655 46V46" stroke="black" stroke-width="20" stroke-linejoin="round"/>
<path d="M86.2778 66.5695V66.5695C74.5142 66.8982 65.0592 75.8555 64.7123 87V87" stroke="black" stroke-width="20" stroke-linejoin="round"/>
<path d="M64.5655 87V87C64.2186 75.8555 54.7636 66.8981 43 66.5695V66.5695" stroke="black" stroke-width="20" stroke-linejoin="round"/>
<path d="M43 66.4305V66.4305C54.7636 66.1018 64.2186 57.1445 64.5655 46V46" stroke="black" stroke-width="20" stroke-linejoin="round"/>
<path d="M64.7123 46V46C65.0592 57.1445 74.5142 66.1018 86.2778 66.4305V66.4305" stroke="black" stroke-width="20" stroke-linejoin="round"/>
</svg>
