<svg width="130" height="130" viewBox="0 0 130 130" fill="none" xmlns="http://www.w3.org/2000/svg">
<path d="M80 101.822C91.3582 101.487 100.487 92.3582 100.822 81" stroke="black" stroke-width="6" stroke-linejoin="round"/>
<path d="M100.988 81.5079C101.323 92.8661 110.452 101.995 121.81 102.33" stroke="black" stroke-width="6" stroke-linejoin="round"/>
<path d="M121.81 102.496C110.452 102.831 101.323 111.96 100.988 123.318" stroke="black" stroke-width="6" stroke-linejoin="round"/>
<path d="M100.822 123.318C100.487 111.96 91.3582 102.83 80 102.496" stroke="black" stroke-width="6" stroke-linejoin="round"/>
<path d="M8 21.8238C16.6316 21.5693 23.5693 14.6316 23.8238 6.00001" stroke="black" stroke-width="6" stroke-linejoin="round"/>
<path d="M23.9494 6.38593C24.204 15.0175 31.1416 21.9552 39.7733 22.2097" stroke="black" stroke-width="6" stroke-linejoin="round"/>
<path d="M39.7733 22.3354C31.1416 22.59 24.204 29.5276 23.9494 38.1592" stroke="black" stroke-width="6" stroke-linejoin="round"/>
<path d="M23.8238 38.1592C23.5693 29.5276 16.6316 22.5899 8.00001 22.3354" stroke="black" stroke-width="6" stroke-linejoin="round"/>
<path d="M15 65.3457C39.7353 64.6163 59.6163 44.7353 60.3457 20" stroke="black" stroke-width="6" stroke-linejoin="round"/>
<path d="M106 65.6543C81.2647 66.3837 61.3837 86.2647 60.6543 111" stroke="black" stroke-width="6" stroke-linejoin="round"/>
<path d="M60.3457 111C59.6163 86.2647 39.7353 66.3837 15 65.6543" stroke="black" stroke-width="6" stroke-linejoin="round"/>
<path d="M15 65.3457C39.7353 64.6163 59.6163 44.7353 60.3457 20" stroke="black" stroke-width="6" stroke-linejoin="round"/>
<path d="M60.6543 20C61.3837 44.7353 81.2647 64.6163 106 65.3457" stroke="black" stroke-width="6" stroke-linejoin="round"/>
</svg>
