<svg width="130" height="130" viewBox="0 0 130 130" fill="none" xmlns="http://www.w3.org/2000/svg">
<path d="M80 101.822C91.3582 101.487 100.487 92.3582 100.822 81" stroke="black" stroke-width="6" stroke-linejoin="round"/>
<path d="M100.988 81.5079C101.323 92.8661 110.452 101.995 121.81 102.33" stroke="black" stroke-width="6" stroke-linejoin="round"/>
<path d="M121.81 102.496C110.452 102.831 101.323 111.96 100.988 123.318" stroke="black" stroke-width="6" stroke-linejoin="round"/>
<path d="M100.822 123.318C100.487 111.96 91.3582 102.83 80 102.496" stroke="black" stroke-width="6" stroke-linejoin="round"/>
<path d="M90 101.418C96.2482 101.234 101.27 96.2118 101.455 89.9636" stroke="black" stroke-width="6" stroke-linejoin="round"/>
<path d="M101.545 90.2429C101.73 96.4912 106.752 101.513 113 101.697" stroke="black" stroke-width="6" stroke-linejoin="round"/>
<path d="M113 101.788C106.752 101.973 101.73 106.995 101.545 113.243" stroke="black" stroke-width="6" stroke-linejoin="round"/>
<path d="M101.455 113.243C101.27 106.995 96.2482 101.973 90 101.788" stroke="black" stroke-width="6" stroke-linejoin="round"/>
<path d="M91 103.47C95.0749 103.35 98.3502 100.075 98.4703 96" stroke="black" stroke-width="6" stroke-linejoin="round"/>
<path d="M98.5296 96.1822C98.6498 100.257 101.925 103.532 106 103.653" stroke="black" stroke-width="6" stroke-linejoin="round"/>
<path d="M106 103.712C101.925 103.832 98.6498 107.107 98.5297 111.182" stroke="black" stroke-width="6" stroke-linejoin="round"/>
<path d="M98.4703 111.182C98.3502 107.107 95.0749 103.832 91 103.712" stroke="black" stroke-width="6" stroke-linejoin="round"/>
<path d="M8 21.8238C16.6316 21.5693 23.5693 14.6316 23.8238 6.00001" stroke="black" stroke-width="6" stroke-linejoin="round"/>
<path d="M23.9494 6.38593C24.204 15.0175 31.1416 21.9552 39.7733 22.2097" stroke="black" stroke-width="6" stroke-linejoin="round"/>
<path d="M39.7733 22.3354C31.1416 22.59 24.204 29.5276 23.9494 38.1592" stroke="black" stroke-width="6" stroke-linejoin="round"/>
<path d="M23.8238 38.1592C23.5693 29.5276 16.6316 22.5899 8.00001 22.3354" stroke="black" stroke-width="6" stroke-linejoin="round"/>
<path d="M8 21.8238C16.6316 21.5693 23.5693 14.6316 23.8238 6.00001" stroke="black" stroke-width="6" stroke-linejoin="round"/>
<path d="M23.9494 6.38593C24.204 15.0175 31.1416 21.9552 39.7733 22.2097" stroke="black" stroke-width="6" stroke-linejoin="round"/>
<path d="M39.7733 22.3354C31.1416 22.59 24.204 29.5276 23.9494 38.1592" stroke="black" stroke-width="6" stroke-linejoin="round"/>
<path d="M23.8238 38.1592C23.5693 29.5276 16.6316 22.5899 8.00001 22.3354" stroke="black" stroke-width="6" stroke-linejoin="round"/>
<path d="M17 22.5161C20.5544 22.4113 23.4113 19.5544 23.5161 16" stroke="black" stroke-width="6" stroke-linejoin="round"/>
<path d="M23.5679 16.1589C23.6727 19.7134 26.5296 22.5702 30.084 22.6751" stroke="black" stroke-width="6" stroke-linejoin="round"/>
<path d="M30.084 22.7268C26.5296 22.8316 23.6727 25.6885 23.5679 29.2429" stroke="black" stroke-width="6" stroke-linejoin="round"/>
<path d="M23.5161 29.2429C23.4113 25.6885 20.5544 22.8316 17 22.7268" stroke="black" stroke-width="6" stroke-linejoin="round"/>
<path d="M17 22.5161C20.5544 22.4113 23.4113 19.5544 23.5161 16" stroke="black" stroke-width="6" stroke-linejoin="round"/>
<path d="M23.5679 16.1589C23.6727 19.7134 26.5296 22.5702 30.084 22.6751" stroke="black" stroke-width="6" stroke-linejoin="round"/>
<path d="M30.084 22.7268C26.5296 22.8316 23.6727 25.6885 23.5679 29.2429" stroke="black" stroke-width="6" stroke-linejoin="round"/>
<path d="M23.5161 29.2429C23.4113 25.6885 20.5544 22.8316 17 22.7268" stroke="black" stroke-width="6" stroke-linejoin="round"/>
<path d="M15 65.3457C39.7353 64.6163 59.6163 44.7353 60.3457 20" stroke="black" stroke-width="6" stroke-linejoin="round"/>
<path d="M106 65.6543C81.2647 66.3837 61.3837 86.2647 60.6543 111" stroke="black" stroke-width="6" stroke-linejoin="round"/>
<path d="M60.3457 111C59.6163 86.2647 39.7353 66.3837 15 65.6543" stroke="black" stroke-width="6" stroke-linejoin="round"/>
<path d="M15 65.3457C39.7353 64.6163 59.6163 44.7353 60.3457 20" stroke="black" stroke-width="6" stroke-linejoin="round"/>
<path d="M60.6543 20C61.3837 44.7353 81.2647 64.6163 106 65.3457" stroke="black" stroke-width="6" stroke-linejoin="round"/>
<path d="M27 66.3864C45.2117 65.8493 59.8493 51.2117 60.3864 33" stroke="black" stroke-width="6" stroke-linejoin="round"/>
<path d="M94 66.6136C75.7883 67.1507 61.1507 81.7883 60.6136 100" stroke="black" stroke-width="6" stroke-linejoin="round"/>
<path d="M60.3864 100C59.8493 81.7883 45.2117 67.1506 27 66.6136" stroke="black" stroke-width="6" stroke-linejoin="round"/>
<path d="M27 66.3864C45.2117 65.8493 59.8493 51.2117 60.3864 33" stroke="black" stroke-width="6" stroke-linejoin="round"/>
<path d="M60.6136 33C61.1507 51.2117 75.7883 65.8493 94 66.3864" stroke="black" stroke-width="6" stroke-linejoin="round"/>
<path d="M39 66.4305C50.7636 66.1018 60.2186 57.1445 60.5655 46" stroke="black" stroke-width="20" stroke-linejoin="round"/>
<path d="M82.2778 66.5695C70.5142 66.8982 61.0592 75.8555 60.7123 87" stroke="black" stroke-width="20" stroke-linejoin="round"/>
<path d="M60.5655 87C60.2186 75.8555 50.7636 66.8981 39 66.5695" stroke="black" stroke-width="20" stroke-linejoin="round"/>
<path d="M39 66.4305C50.7636 66.1018 60.2186 57.1445 60.5655 46" stroke="black" stroke-width="20" stroke-linejoin="round"/>
<path d="M60.7123 46C61.0592 57.1445 70.5142 66.1018 82.2778 66.4305" stroke="black" stroke-width="20" stroke-linejoin="round"/>
</svg>
